<svg width="511" height="434" viewBox="0 0 511 434" fill="none" xmlns="http://www.w3.org/2000/svg">
<g clip-path="url(#clip0)">
<path d="M322.361 174.602L299.139 153.817L275.094 175.976C280.647 182.45 286.201 188.922 291.754 195.393L322.361 174.602Z" fill="#00B4D8"/>
<path d="M277.698 101.922C278.036 102.545 277.918 103.128 277.992 103.918C278.123 105.491 278.091 107.074 277.894 108.641C277.667 110.704 277.239 112.739 276.615 114.718C276.208 115.272 275.796 115.821 275.39 116.371L284.651 140.403L270.171 161.189C268.75 152.216 267.386 143.105 266.079 133.855C265.318 128.441 264.59 123.062 263.894 117.719C262.621 115.438 261.525 113.062 260.616 110.613C258.455 104.776 256.632 99.8569 258.886 95.9333C259.131 95.5115 260.846 92.657 264.149 92.0587C266.109 91.744 268.114 92.2202 269.725 93.3829C270.239 93.7753 271.347 94.7464 272.459 97.8461C273.439 100.759 273.971 103.803 274.037 106.875C274.091 106.875 273.155 101.142 274.836 100.362C275.639 99.9894 277.105 100.828 277.698 101.922Z" fill="#F9CFEC"/>
<path d="M272.144 113.05L272.472 112.986C272.264 111.9 272.287 110.782 272.54 109.705C272.793 108.628 273.271 107.617 273.942 106.738L273.678 106.532C273.085 107.308 272.634 108.183 272.345 109.117C271.967 110.393 271.899 111.742 272.144 113.05Z" fill="#686874"/>
<path d="M267.976 93.1675L267.652 93.2477L269.843 102.103L270.167 102.022L267.976 93.1675Z" fill="#686874"/>
<path d="M264.241 92.0685L263.918 92.1503L267.078 104.65L267.401 104.569L264.241 92.0685Z" fill="#686874"/>
<path d="M261.015 94.4506L260.691 94.5307L262.881 103.386L263.204 103.306L261.015 94.4506Z" fill="#686874"/>
<path d="M259.516 142.885C262.175 148.868 264.816 154.976 267.439 161.208C269.216 165.433 270.948 169.626 272.633 173.788C276.255 178.57 279.817 179.35 281.101 179.532C288.613 180.596 298.011 172.582 301.598 158.746L286.295 130.574L259.516 142.885Z" fill="#00B4D8"/>
<path d="M291.56 194.937C293.963 188.53 298.131 182.935 303.58 178.801L282.906 185.275L291.56 194.937Z" fill="#048EA0"/>
<path d="M336.501 224.989C348.549 212.93 348.549 193.378 336.501 181.319C324.452 169.26 304.918 169.26 292.87 181.319C280.822 193.378 280.822 212.93 292.87 224.989C304.918 237.048 324.452 237.048 336.501 224.989Z" fill="#00B4D8"/>
<path d="M105.461 203.701L212.373 215.08C225.603 220.342 232.709 234.355 229.548 246.807C225.927 261.075 209.595 270.349 193.909 265.214L127.855 247.906C120.393 233.17 112.929 218.435 105.461 203.701Z" fill="#00B4D8"/>
<path d="M277.572 275.901L221.886 221.147C220.759 220.166 213.654 214.315 204.623 216.022C203.814 216.174 196.978 217.571 192.745 223.579C182.008 238.823 199.463 267.451 199.473 267.47L199.507 267.519L199.571 267.613C199.664 267.76 215.624 314.966 235.886 325.683C246.71 331.411 262.969 328.949 272.603 319.63C283.026 309.591 285.314 291.876 277.572 275.901Z" fill="#048EA0"/>
<path d="M78.4023 194.26L113.684 256.151L128.257 247.813C128.002 243.546 125.836 215.173 101.698 201.22C93.1764 196.335 84.5766 194.746 78.4023 194.26Z" fill="#686874"/>
<path d="M222.523 263.821L222.548 263.875V263.9L222.592 264.008C222.656 264.17 229.143 313.578 246.936 328.037C256.442 335.757 272.873 336.507 284.128 329.243C296.291 321.396 301.98 304.461 297.486 287.285C282.825 265.767 268.16 244.252 253.492 222.741C252.576 221.578 246.75 214.437 237.557 214.354C236.734 214.354 229.761 214.388 224.439 219.46C210.959 232.319 222.518 263.802 222.523 263.821Z" fill="#048EA0"/>
<path d="M250.845 234.114L276.782 279.678C276.909 279.187 277.031 278.697 277.159 278.206C272.705 279.751 269.627 284.7 270.436 289.718C271.225 294.622 274.959 298.212 279.457 298.791C280.599 298.938 280.849 297.011 279.707 296.863C271.377 295.784 269.162 282.998 277.84 279.987C278.443 279.776 278.482 278.967 278.212 278.515C269.565 263.328 260.918 248.14 252.271 232.952C251.673 231.898 250.252 233.109 250.845 234.154V234.114Z" fill="#008AD6"/>
<path d="M342.567 153.975C344.474 145.748 339.891 137.656 332.33 135.9C324.769 134.145 317.094 139.391 315.187 147.618C313.28 155.846 317.864 163.938 325.425 165.694C332.985 167.449 340.66 162.203 342.567 153.975Z" fill="#F9CFEC"/>
<path d="M319.566 139.236C320.782 141.242 321.88 143.316 322.854 145.45C324.144 148.267 325.227 151.175 326.093 154.15C325.53 159.379 326.618 164.224 329.479 165.921C334.125 168.673 342.71 162.704 344.729 155.411C346.86 147.77 341.132 141.134 339.407 139.138C337.878 137.367 335.531 134.773 331.689 134.15C325.28 133.115 320.213 138.525 319.566 139.236Z" fill="black"/>
<path d="M325.228 151.831C324.077 153.38 324.092 155.445 325.268 156.446C326.444 157.446 328.325 156.995 329.477 155.465C330.628 153.935 330.614 151.85 329.443 150.85C328.271 149.849 326.385 150.281 325.228 151.831Z" fill="#F9CFEC"/>
<path d="M323.055 234.477C326.881 233.53 330.471 231.802 333.6 229.401C333.43 222.921 333.257 216.443 333.08 209.969L323.055 234.477Z" fill="#931294"/>
<path d="M330.206 188.296L298.703 218.283C299.971 225.639 301.238 232.996 302.506 240.353L315.114 238.656L342.937 206.075L330.206 188.296Z" fill="#F9ABFF"/>
<path d="M255.238 193.225L270.355 196.737L274.819 160.786L259.702 157.275L255.238 193.225Z" fill="#686874"/>
<path d="M267.839 165.245L265.457 164.69C265.278 164.657 265.107 164.587 264.955 164.485C264.803 164.383 264.674 164.251 264.575 164.097C264.453 163.778 264.816 163.798 265.021 163.847L267.403 164.401C267.583 164.435 267.753 164.505 267.905 164.607C268.057 164.709 268.186 164.841 268.285 164.994C268.407 165.313 268.045 165.294 267.839 165.245Z" fill="#898996"/>
<path d="M310.429 218.665L273.261 190.071C273.509 189.156 273.509 188.191 273.261 187.276C273.437 186.339 272.595 184.142 268.851 179.026C266.004 176.971 265.254 176.962 265.034 177.202C264.681 177.589 265.626 178.673 266.812 181.93C267.41 183.563 267.591 184.426 267.988 185.226C266.606 184.925 265.33 184.258 264.294 183.293C260.81 180.096 260.373 174.656 258.497 174.902C258.198 174.936 257.517 175.451 256.159 176.481C255.267 177.153 254.498 177.795 254.307 177.952C252.592 179.512 251.975 184.873 253.508 189.414C254.488 192.382 257.169 197.193 261.05 198.733L289.926 236.312C291.03 237.74 292.427 238.914 294.023 239.756C295.619 240.598 297.377 241.087 299.178 241.191C300.979 241.295 302.781 241.012 304.463 240.359C306.146 239.707 307.668 238.702 308.929 237.41C313.56 232.697 314.398 224.526 310.429 218.665Z" fill="#F9CFEC"/>
<path d="M254.812 178.384C254.772 181.582 255.55 184.738 257.071 187.551C257.414 188.183 256.498 188.821 256.155 188.188C254.538 185.202 253.706 181.854 253.739 178.457C253.739 177.712 254.817 177.638 254.812 178.384Z" fill="#686874"/>
<path d="M256.815 176.299C257.932 179.393 259.168 182.422 260.524 185.388C260.823 186.04 259.907 186.682 259.603 186.025C258.205 182.968 256.934 179.85 255.791 176.672C255.766 176.605 255.755 176.533 255.758 176.462C255.761 176.39 255.779 176.32 255.809 176.255C255.839 176.19 255.882 176.132 255.935 176.084C255.987 176.035 256.049 175.998 256.116 175.973C256.184 175.949 256.255 175.938 256.327 175.941C256.398 175.944 256.468 175.961 256.533 175.992C256.598 176.022 256.656 176.065 256.705 176.118C256.753 176.17 256.79 176.232 256.815 176.299Z" fill="#686874"/>
<path d="M163.301 383.414H298.055C299.633 383.414 299.633 380.962 298.055 380.962H163.301C161.723 380.962 161.723 383.414 163.301 383.414Z" fill="#686874"/>
<path d="M303.405 374.964C303.254 374.964 303.106 374.929 302.97 374.861C302.835 374.794 302.717 374.697 302.626 374.576L274.867 338.283C274.725 338.075 274.668 337.822 274.708 337.574C274.747 337.326 274.88 337.103 275.079 336.95C275.278 336.797 275.528 336.727 275.778 336.753C276.027 336.779 276.257 336.9 276.42 337.091L304.184 373.384C304.296 373.53 304.365 373.704 304.383 373.886C304.401 374.069 304.368 374.253 304.287 374.417C304.205 374.582 304.08 374.72 303.924 374.817C303.768 374.913 303.588 374.964 303.405 374.964Z" fill="#686874"/>
<path d="M298.495 383.439C298.322 383.44 298.153 383.394 298.005 383.306C297.781 383.175 297.618 382.961 297.552 382.71C297.486 382.459 297.522 382.192 297.652 381.967L302.552 373.487C302.688 373.274 302.9 373.121 303.146 373.061C303.391 373.001 303.651 373.038 303.87 373.164C304.088 373.291 304.25 373.497 304.32 373.74C304.391 373.983 304.365 374.244 304.248 374.468L299.347 382.948C299.261 383.098 299.137 383.222 298.987 383.308C298.837 383.395 298.667 383.44 298.495 383.439Z" fill="#686874"/>
<path d="M288.707 339.955H288.555L169.143 321.347C169.014 321.327 168.89 321.283 168.779 321.215C168.668 321.148 168.571 321.059 168.493 320.954C168.416 320.849 168.361 320.73 168.33 320.603C168.298 320.477 168.292 320.345 168.312 320.217C168.332 320.088 168.377 319.964 168.444 319.853C168.511 319.741 168.6 319.644 168.705 319.567C168.81 319.49 168.929 319.434 169.055 319.403C169.182 319.372 169.313 319.366 169.442 319.385L288.854 337.983C289.114 338.003 289.355 338.125 289.525 338.323C289.695 338.52 289.78 338.778 289.76 339.038C289.741 339.298 289.619 339.54 289.421 339.71C289.224 339.88 288.967 339.965 288.707 339.945V339.955Z" fill="#686874"/>
<path d="M160.875 259.942C160.746 259.944 160.618 259.922 160.498 259.875C160.378 259.828 160.269 259.758 160.176 259.668C160.083 259.579 160.009 259.473 159.957 259.354C159.906 259.236 159.878 259.109 159.875 258.981C159.873 258.852 159.895 258.724 159.942 258.604C159.989 258.484 160.059 258.374 160.148 258.281C160.238 258.188 160.344 258.114 160.462 258.062C160.58 258.011 160.707 257.983 160.836 257.98L323.031 251.653C323.291 251.643 323.545 251.736 323.736 251.913C323.927 252.089 324.04 252.335 324.051 252.595C324.061 252.855 323.968 253.109 323.791 253.3C323.615 253.491 323.37 253.605 323.11 253.615L160.909 259.942H160.875Z" fill="#686874"/>
<path d="M169.288 321.357C169.049 321.359 168.818 321.274 168.637 321.118C168.457 320.962 168.34 320.745 168.308 320.508L159.904 259.074C159.886 258.945 159.894 258.814 159.927 258.688C159.96 258.562 160.017 258.444 160.096 258.341C160.174 258.237 160.272 258.15 160.384 258.084C160.496 258.019 160.62 257.976 160.749 257.958C160.878 257.94 161.009 257.948 161.134 257.981C161.26 258.014 161.378 258.071 161.481 258.15C161.585 258.228 161.672 258.327 161.738 258.439C161.803 258.551 161.846 258.675 161.864 258.804L170.263 320.268C170.298 320.526 170.229 320.786 170.072 320.993C169.915 321.2 169.682 321.336 169.425 321.372C169.379 321.372 169.333 321.367 169.288 321.357Z" fill="#686874"/>
<path d="M288.704 339.955C288.544 339.955 288.386 339.916 288.244 339.841C288.103 339.766 287.982 339.658 287.892 339.525C287.802 339.392 287.746 339.24 287.728 339.08C287.711 338.921 287.733 338.76 287.792 338.611L322.544 251.913L332.232 229.465C332.279 229.341 332.35 229.227 332.442 229.132C332.533 229.036 332.644 228.96 332.766 228.908C332.888 228.856 333.019 228.829 333.151 228.83C333.284 228.83 333.415 228.857 333.537 228.909C333.658 228.962 333.768 229.039 333.86 229.135C333.951 229.231 334.022 229.345 334.068 229.469C334.114 229.593 334.134 229.726 334.128 229.858C334.122 229.991 334.088 230.121 334.03 230.24L324.377 252.668L289.6 339.342C289.528 339.521 289.404 339.675 289.245 339.784C289.085 339.893 288.897 339.953 288.704 339.955Z" fill="#686874"/>
<path d="M389.006 220.298H350.074C349.62 220.298 349.183 220.117 348.862 219.796C348.54 219.474 348.359 219.037 348.359 218.582C348.359 218.126 348.54 217.69 348.862 217.368C349.183 217.046 349.62 216.865 350.074 216.865H389.006C389.461 216.865 389.897 217.046 390.219 217.368C390.541 217.69 390.721 218.126 390.721 218.582C390.721 219.037 390.541 219.474 390.219 219.796C389.897 220.117 389.461 220.298 389.006 220.298Z" fill="#686874"/>
<path d="M300.127 253.595C299.918 253.596 299.715 253.53 299.546 253.406C299.378 253.283 299.253 253.109 299.19 252.91C299.127 252.711 299.129 252.497 299.197 252.299C299.264 252.101 299.392 251.93 299.564 251.81L347.963 217.763C348.068 217.683 348.187 217.626 348.315 217.594C348.442 217.563 348.575 217.557 348.705 217.577C348.835 217.598 348.959 217.644 349.07 217.713C349.182 217.783 349.278 217.874 349.354 217.982C349.43 218.089 349.483 218.211 349.51 218.34C349.538 218.468 349.54 218.601 349.515 218.73C349.49 218.859 349.44 218.982 349.367 219.092C349.294 219.201 349.2 219.294 349.09 219.366L300.691 253.404C300.527 253.525 300.33 253.592 300.127 253.595Z" fill="#686874"/>
<path d="M277.171 337.993C277.085 337.994 276.999 337.982 276.916 337.959C276.665 337.891 276.452 337.726 276.322 337.501C276.192 337.276 276.158 337.008 276.225 336.757L299.182 252.355C299.216 252.23 299.274 252.114 299.353 252.012C299.432 251.91 299.53 251.825 299.641 251.761C299.753 251.697 299.876 251.655 300.004 251.639C300.132 251.623 300.261 251.632 300.385 251.665C300.51 251.699 300.626 251.757 300.728 251.836C300.829 251.915 300.915 252.013 300.979 252.125C301.043 252.237 301.084 252.36 301.1 252.488C301.117 252.615 301.108 252.745 301.074 252.87L278.116 337.272C278.06 337.479 277.936 337.662 277.765 337.793C277.594 337.923 277.386 337.993 277.171 337.993Z" fill="#686874"/>
<path d="M255.924 334.849C255.853 334.851 255.782 334.843 255.714 334.825C255.588 334.797 255.469 334.746 255.363 334.672C255.257 334.599 255.167 334.505 255.097 334.397C255.027 334.288 254.98 334.167 254.957 334.04C254.934 333.913 254.936 333.783 254.964 333.657L272.678 253.345C272.699 253.214 272.747 253.088 272.819 252.975C272.891 252.862 272.985 252.766 273.095 252.691C273.205 252.616 273.33 252.564 273.461 252.539C273.592 252.514 273.726 252.516 273.856 252.544C273.987 252.573 274.11 252.628 274.218 252.706C274.326 252.784 274.417 252.883 274.486 252.998C274.554 253.112 274.599 253.24 274.617 253.372C274.634 253.504 274.625 253.639 274.589 253.767L256.88 334.079C256.832 334.297 256.711 334.492 256.537 334.632C256.364 334.772 256.147 334.849 255.924 334.849Z" fill="#686874"/>
<path d="M235.7 331.392C235.661 331.396 235.621 331.396 235.582 331.392C235.39 331.361 235.217 331.256 235.103 331.099C234.988 330.942 234.94 330.745 234.969 330.553L247.068 254.591C247.099 254.396 247.205 254.221 247.365 254.105C247.524 253.988 247.723 253.94 247.918 253.971C248.113 254.001 248.288 254.108 248.404 254.268C248.52 254.427 248.569 254.626 248.538 254.822L236.44 330.774C236.411 330.949 236.321 331.107 236.185 331.221C236.049 331.334 235.877 331.395 235.7 331.392Z" fill="#686874"/>
<path d="M195.071 326.188C194.818 326.188 194.574 326.09 194.392 325.915C194.209 325.739 194.101 325.499 194.091 325.246L191.68 257.735C191.671 257.475 191.766 257.222 191.943 257.031C192.12 256.841 192.366 256.729 192.626 256.72C192.886 256.711 193.139 256.805 193.329 256.983C193.519 257.16 193.631 257.406 193.64 257.666L196.051 325.173C196.056 325.301 196.035 325.43 195.99 325.551C195.945 325.671 195.876 325.782 195.789 325.876C195.701 325.971 195.595 326.047 195.478 326.1C195.361 326.154 195.234 326.183 195.106 326.188H195.071Z" fill="#686874"/>
<path d="M312.064 281.032L163.668 280.365C163.408 280.365 163.158 280.261 162.975 280.077C162.791 279.893 162.688 279.644 162.688 279.384C162.688 279.123 162.791 278.874 162.975 278.69C163.158 278.506 163.408 278.403 163.668 278.403L312.069 279.07C312.329 279.07 312.579 279.173 312.762 279.357C312.946 279.541 313.049 279.79 313.049 280.051C313.049 280.311 312.946 280.56 312.762 280.744C312.579 280.928 312.329 281.032 312.069 281.032H312.064Z" fill="#686874"/>
<path d="M297.697 317.281H297.599L166.828 304.083C166.7 304.07 166.575 304.032 166.461 303.971C166.347 303.91 166.246 303.827 166.164 303.726C166.082 303.626 166.021 303.511 165.983 303.387C165.946 303.263 165.933 303.133 165.946 303.004C165.959 302.875 165.997 302.75 166.058 302.636C166.12 302.522 166.203 302.421 166.303 302.339C166.403 302.257 166.518 302.196 166.642 302.158C166.766 302.121 166.896 302.108 167.024 302.121L297.795 315.305C298.055 315.318 298.299 315.433 298.474 315.627C298.649 315.82 298.739 316.074 298.726 316.335C298.713 316.595 298.598 316.839 298.405 317.014C298.212 317.189 297.957 317.279 297.697 317.266V317.281Z" fill="#686874"/>
<path d="M191.774 411.527C189.4 411.527 187.08 410.823 185.107 409.503C183.133 408.183 181.595 406.307 180.687 404.113C179.779 401.918 179.541 399.503 180.004 397.173C180.467 394.843 181.61 392.703 183.288 391.023C184.967 389.343 187.105 388.199 189.433 387.735C191.761 387.272 194.174 387.51 196.366 388.419C198.559 389.328 200.433 390.868 201.752 392.843C203.071 394.818 203.775 397.14 203.775 399.516C203.772 402.701 202.507 405.754 200.257 408.006C198.007 410.258 194.956 411.525 191.774 411.527ZM191.774 390.928C190.079 390.928 188.421 391.431 187.012 392.374C185.602 393.317 184.504 394.657 183.855 396.225C183.207 397.792 183.038 399.517 183.369 401.182C183.7 402.846 184.516 404.374 185.716 405.574C186.915 406.773 188.442 407.59 190.105 407.92C191.768 408.25 193.491 408.08 195.057 407.43C196.623 406.78 197.961 405.68 198.902 404.268C199.844 402.857 200.345 401.198 200.344 399.501C200.338 397.23 199.432 395.054 197.826 393.45C196.219 391.846 194.043 390.944 191.774 390.943V390.928Z" fill="#686874"/>
<path d="M268.285 411.527C265.911 411.526 263.592 410.821 261.619 409.501C259.646 408.18 258.109 406.304 257.201 404.109C256.294 401.914 256.057 399.499 256.52 397.17C256.984 394.84 258.127 392.7 259.806 391.021C261.484 389.342 263.622 388.198 265.95 387.735C268.278 387.272 270.691 387.51 272.883 388.419C275.076 389.329 276.95 390.868 278.268 392.843C279.586 394.819 280.29 397.141 280.29 399.516C280.286 402.701 279.02 405.755 276.769 408.007C274.518 410.259 271.467 411.525 268.285 411.527ZM268.285 390.928C266.59 390.929 264.934 391.433 263.526 392.375C262.117 393.318 261.019 394.658 260.371 396.225C259.723 397.792 259.553 399.516 259.884 401.179C260.214 402.842 261.03 404.371 262.228 405.57C263.425 406.77 264.952 407.587 266.613 407.919C268.275 408.25 269.998 408.082 271.564 407.434C273.13 406.786 274.469 405.688 275.411 404.279C276.354 402.869 276.858 401.212 276.86 399.516C276.856 397.242 275.951 395.062 274.343 393.455C272.736 391.847 270.557 390.944 268.285 390.943V390.928Z" fill="#686874"/>
<path d="M146.379 363.595L231 353.031L228.511 333.069C223.684 331.387 191.343 320.724 164.833 341.019C155.479 348.185 149.77 356.974 146.379 363.595Z" fill="#686874"/>
<path d="M257.569 239.612C249.565 273.617 241.562 307.604 233.558 341.573L181.641 330.362L206.337 230.147C213.237 216.046 229.045 209.964 241.339 214.943C250.679 218.69 257.084 228.459 257.569 239.612Z" fill="#00B4D8"/>
<path d="M215.36 221.666L189.828 328.601L191.258 328.943L216.789 222.008L215.36 221.666Z" fill="#008AD6"/>
<path d="M185.978 312.568L185.715 314.016L232.182 322.468L232.445 321.02L185.978 312.568Z" fill="#008AD6"/>
<path d="M192.474 320.505L192.223 321.954L221.954 327.116L222.205 325.666L192.474 320.505Z" fill="#008AD6"/>
<path d="M126.059 212.375L125.883 213.835L208.995 223.873L209.171 222.412L126.059 212.375Z" fill="#008AD6"/>
<path d="M128.886 212.858L127.477 213.278L136.138 242.45L137.547 242.03L128.886 212.858Z" fill="#008AD6"/>
<path d="M138.267 214.057L136.859 214.48L147.332 249.396L148.74 248.973L138.267 214.057Z" fill="#008AD6"/>
<path d="M288.153 200.842C284.759 210.043 281.362 219.245 277.961 228.45C286.737 241.462 301.717 247.578 316.074 244.076C332.564 240.034 345.314 223.967 346.671 204.932C348.553 194.633 344.197 185.201 337.008 182.156C330.452 179.375 323.944 182.926 322.763 183.597L303.123 209.641L288.153 200.842Z" fill="#048EA0"/>
<path d="M332.757 202.441C333.324 202.576 333.919 202.54 334.465 202.337C335.012 202.133 335.486 201.771 335.827 201.298C336.167 200.824 336.359 200.259 336.379 199.676C336.398 199.092 336.243 198.516 335.935 198.021C335.626 197.526 335.177 197.134 334.645 196.894C334.113 196.655 333.522 196.58 332.947 196.678C332.372 196.775 331.839 197.042 331.416 197.444C330.993 197.846 330.699 198.364 330.571 198.934C330.402 199.689 330.537 200.48 330.946 201.136C331.355 201.792 332.005 202.261 332.757 202.441ZM333.815 197.865C334.157 197.944 334.468 198.122 334.709 198.378C334.949 198.634 335.108 198.955 335.166 199.302C335.224 199.648 335.178 200.004 335.034 200.324C334.89 200.645 334.654 200.915 334.356 201.101C334.059 201.287 333.713 201.38 333.362 201.369C333.011 201.359 332.671 201.244 332.386 201.04C332.1 200.836 331.882 200.551 331.757 200.223C331.633 199.894 331.609 199.536 331.689 199.194C331.795 198.736 332.078 198.338 332.477 198.089C332.876 197.84 333.357 197.759 333.815 197.865Z" fill="white"/>
<path d="M328.986 223.02C329.826 223.214 330.704 223.155 331.509 222.85C332.315 222.545 333.013 222.008 333.514 221.306C334.015 220.605 334.298 219.771 334.325 218.909C334.353 218.047 334.126 217.196 333.671 216.464C333.216 215.731 332.555 215.15 331.771 214.793C330.986 214.436 330.114 214.32 329.264 214.459C328.414 214.598 327.623 214.986 326.993 215.574C326.363 216.162 325.921 216.923 325.722 217.763C325.59 218.322 325.57 218.903 325.662 219.471C325.755 220.038 325.959 220.582 326.262 221.071C326.565 221.559 326.962 221.983 327.43 222.318C327.897 222.652 328.426 222.891 328.986 223.02ZM330.696 215.634C331.316 215.778 331.879 216.102 332.314 216.566C332.749 217.029 333.038 217.612 333.142 218.24C333.247 218.867 333.163 219.512 332.901 220.092C332.64 220.672 332.212 221.161 331.673 221.498C331.133 221.835 330.506 222.004 329.871 221.984C329.235 221.965 328.62 221.756 328.103 221.386C327.585 221.017 327.189 220.501 326.964 219.906C326.74 219.311 326.696 218.662 326.84 218.042C327.033 217.212 327.548 216.492 328.271 216.041C328.994 215.589 329.866 215.443 330.696 215.634Z" fill="white"/>
<path d="M313.702 206.801C314.039 206.879 314.392 206.856 314.716 206.734C315.039 206.611 315.32 206.396 315.521 206.114C315.722 205.832 315.836 205.497 315.847 205.151C315.857 204.804 315.765 204.463 315.582 204.169C315.399 203.875 315.133 203.642 314.817 203.499C314.502 203.357 314.151 203.311 313.81 203.369C313.468 203.426 313.152 203.583 312.9 203.82C312.647 204.057 312.471 204.364 312.393 204.702C312.341 204.926 312.334 205.158 312.371 205.384C312.409 205.611 312.49 205.828 312.612 206.023C312.734 206.218 312.892 206.387 313.079 206.521C313.266 206.654 313.478 206.75 313.702 206.801ZM314.231 204.506C314.308 204.524 314.381 204.557 314.446 204.603C314.51 204.649 314.565 204.707 314.607 204.775C314.649 204.842 314.677 204.917 314.69 204.996C314.703 205.074 314.7 205.154 314.682 205.232C314.655 205.348 314.594 205.453 314.506 205.534C314.419 205.616 314.31 205.669 314.193 205.689C314.075 205.708 313.955 205.692 313.846 205.643C313.738 205.593 313.646 205.513 313.583 205.412C313.52 205.311 313.489 205.193 313.493 205.074C313.497 204.955 313.536 204.839 313.605 204.742C313.674 204.645 313.771 204.571 313.882 204.529C313.994 204.487 314.115 204.479 314.231 204.506Z" fill="white"/>
<path d="M307.092 236.449C308.182 236.702 309.322 236.627 310.368 236.231C311.414 235.836 312.32 235.139 312.971 234.229C313.622 233.318 313.988 232.235 314.024 231.116C314.059 229.997 313.762 228.893 313.171 227.943C312.58 226.993 311.72 226.239 310.701 225.778C309.681 225.317 308.549 225.169 307.445 225.353C306.342 225.536 305.318 226.043 304.502 226.809C303.686 227.575 303.116 228.566 302.863 229.656C302.527 231.118 302.783 232.654 303.576 233.927C304.368 235.2 305.633 236.107 307.092 236.449ZM309.39 226.537C310.261 226.735 311.053 227.187 311.666 227.836C312.28 228.485 312.687 229.301 312.836 230.182C312.985 231.063 312.87 231.968 312.505 232.783C312.14 233.598 311.541 234.287 310.784 234.761C310.028 235.235 309.148 235.474 308.256 235.447C307.364 235.42 306.5 235.129 305.773 234.61C305.046 234.091 304.49 233.368 304.175 232.533C303.859 231.697 303.798 230.786 304 229.916C304.271 228.755 304.99 227.748 305.999 227.115C307.009 226.482 308.228 226.274 309.39 226.537Z" fill="white"/>
<path d="M325.561 232.785C325.905 232.865 326.264 232.842 326.594 232.717C326.924 232.593 327.21 232.373 327.416 232.086C327.621 231.799 327.737 231.457 327.748 231.104C327.759 230.751 327.666 230.403 327.48 230.103C327.293 229.803 327.022 229.566 326.701 229.42C326.379 229.275 326.022 229.228 325.674 229.285C325.326 229.343 325.003 229.503 324.745 229.744C324.488 229.986 324.308 230.298 324.228 230.642C324.124 231.103 324.205 231.587 324.454 231.988C324.704 232.389 325.102 232.676 325.561 232.785ZM326.11 230.421C326.232 230.449 326.344 230.513 326.43 230.604C326.517 230.695 326.574 230.809 326.596 230.933C326.618 231.057 326.602 231.184 326.552 231.299C326.501 231.414 326.418 231.512 326.312 231.58C326.207 231.648 326.083 231.683 325.958 231.681C325.832 231.678 325.71 231.639 325.607 231.568C325.503 231.496 325.424 231.396 325.377 231.279C325.33 231.163 325.319 231.035 325.345 230.912C325.363 230.829 325.397 230.751 325.446 230.682C325.494 230.613 325.555 230.554 325.626 230.508C325.697 230.463 325.776 230.431 325.859 230.417C325.942 230.402 326.027 230.403 326.11 230.421Z" fill="white"/>
<path d="M292.542 220.946C293.271 221.114 294.033 221.063 294.733 220.798C295.432 220.533 296.038 220.067 296.473 219.458C296.907 218.848 297.152 218.124 297.175 217.375C297.199 216.627 297 215.889 296.604 215.253C296.209 214.618 295.634 214.115 294.952 213.806C294.27 213.498 293.513 213.399 292.775 213.522C292.037 213.644 291.352 213.983 290.806 214.495C290.261 215.007 289.879 215.67 289.71 216.399C289.485 217.378 289.657 218.406 290.188 219.258C290.719 220.11 291.565 220.717 292.542 220.946ZM294.012 214.683C294.52 214.801 294.981 215.068 295.338 215.45C295.694 215.831 295.929 216.31 296.014 216.825C296.098 217.341 296.028 217.869 295.812 218.345C295.595 218.82 295.243 219.22 294.8 219.495C294.356 219.77 293.841 219.907 293.32 219.889C292.798 219.871 292.294 219.698 291.871 219.393C291.448 219.088 291.124 218.663 290.942 218.174C290.76 217.685 290.726 217.153 290.846 216.644C291.009 215.973 291.427 215.391 292.012 215.024C292.598 214.658 293.303 214.535 293.978 214.683H294.012Z" fill="white"/>
<path d="M286.048 231.849C286.465 231.946 286.902 231.918 287.303 231.767C287.704 231.616 288.052 231.349 288.301 231C288.551 230.652 288.692 230.237 288.706 229.808C288.72 229.379 288.606 228.956 288.38 228.592C288.153 228.228 287.824 227.939 287.433 227.762C287.043 227.586 286.608 227.529 286.186 227.599C285.763 227.67 285.37 227.864 285.058 228.158C284.746 228.451 284.527 228.831 284.431 229.249C284.301 229.808 284.399 230.396 284.702 230.884C285.005 231.371 285.489 231.718 286.048 231.849ZM286.768 228.744C286.965 228.789 287.144 228.891 287.282 229.038C287.421 229.185 287.512 229.369 287.546 229.568C287.58 229.767 287.554 229.972 287.471 230.156C287.388 230.34 287.253 230.496 287.082 230.603C286.911 230.71 286.713 230.764 286.511 230.758C286.309 230.752 286.114 230.687 285.95 230.569C285.785 230.452 285.66 230.289 285.588 230.1C285.517 229.912 285.503 229.706 285.548 229.509C285.609 229.246 285.771 229.017 286 228.874C286.229 228.731 286.505 228.684 286.768 228.744Z" fill="white"/>
<path d="M310.671 219.435C311.498 219.628 312.364 219.57 313.158 219.27C313.953 218.97 314.64 218.441 315.134 217.75C315.628 217.059 315.907 216.237 315.934 215.387C315.961 214.538 315.735 213.699 315.286 212.978C314.837 212.257 314.184 211.685 313.41 211.335C312.637 210.985 311.777 210.873 310.939 211.012C310.101 211.152 309.324 211.537 308.705 212.118C308.086 212.7 307.653 213.452 307.461 214.28C307.206 215.39 307.4 216.555 308.002 217.522C308.604 218.488 309.563 219.176 310.671 219.435ZM312.352 212.186C312.958 212.327 313.509 212.644 313.935 213.098C314.362 213.552 314.644 214.122 314.746 214.737C314.848 215.351 314.766 215.982 314.51 216.55C314.254 217.117 313.835 217.596 313.307 217.926C312.779 218.255 312.165 218.421 311.543 218.401C310.921 218.381 310.319 218.177 309.812 217.815C309.306 217.452 308.919 216.948 308.699 216.365C308.48 215.782 308.438 215.147 308.579 214.54C308.768 213.732 309.268 213.031 309.971 212.59C310.674 212.149 311.523 212.004 312.332 212.186H312.352Z" fill="white"/>
<path d="M330.852 189.154C331.122 189.218 331.405 189.2 331.665 189.103C331.925 189.005 332.15 188.833 332.312 188.608C332.474 188.382 332.565 188.114 332.575 187.836C332.584 187.559 332.511 187.285 332.365 187.049C332.218 186.813 332.005 186.626 331.753 186.511C331.5 186.397 331.219 186.36 330.945 186.405C330.672 186.45 330.417 186.576 330.215 186.766C330.013 186.956 329.871 187.202 329.809 187.472C329.726 187.834 329.79 188.213 329.985 188.528C330.18 188.843 330.492 189.068 330.852 189.154ZM331.23 187.541C331.262 187.548 331.293 187.561 331.321 187.58C331.348 187.6 331.371 187.624 331.388 187.653C331.406 187.681 331.417 187.713 331.422 187.746C331.427 187.779 331.425 187.813 331.416 187.845C331.393 187.901 331.351 187.947 331.297 187.974C331.244 188.002 331.182 188.01 331.123 187.996C331.064 187.983 331.012 187.949 330.976 187.9C330.94 187.852 330.922 187.792 330.926 187.732C330.934 187.697 330.949 187.664 330.97 187.636C330.991 187.607 331.018 187.583 331.049 187.565C331.079 187.547 331.114 187.536 331.149 187.531C331.184 187.527 331.22 187.53 331.254 187.541H331.23Z" fill="white"/>
<path d="M409.731 97.542C407.61 93.9028 398.731 93.4957 393.321 97.0123C388.866 99.9109 389.616 103.619 385.382 105.487C379.992 107.861 376.596 102.878 371.618 104.958C365.586 107.484 367.115 116.238 361.558 118.2C356.604 119.936 353.33 113.688 348.327 115.022C341.854 116.748 335.44 130.358 341.467 139.398C345.245 145.082 353.561 148.388 358.407 145.773C364.851 142.276 362.239 129.868 368.467 127.759C371.985 126.567 373.921 130.157 377.464 128.818C383.114 126.685 381.237 116.429 386.995 113.982C390.479 112.511 392.341 115.758 397.055 115.041C405.13 113.786 412.446 102.187 409.731 97.542Z" fill="black"/>
<path d="M347.695 141.487C348.305 138.898 346.703 136.304 344.117 135.693C341.53 135.082 338.938 136.685 338.328 139.274C337.718 141.863 339.319 144.457 341.906 145.068C344.492 145.679 347.084 144.075 347.695 141.487Z" fill="black"/>
<path d="M495.408 396.102C495.408 396.641 495.248 397.167 494.95 397.615C494.651 398.062 494.226 398.411 493.729 398.617C493.232 398.823 492.685 398.877 492.158 398.772C491.63 398.667 491.146 398.408 490.765 398.027C490.385 397.646 490.126 397.161 490.021 396.633C489.916 396.105 489.97 395.558 490.176 395.061C490.382 394.563 490.73 394.138 491.177 393.839C491.625 393.54 492.15 393.38 492.688 393.38C493.41 393.38 494.101 393.667 494.611 394.178C495.121 394.688 495.408 395.38 495.408 396.102Z" fill="#5E5E69"/>
<path d="M22.0807 218.636C23.6936 218.636 25.0012 217.327 25.0012 215.713C25.0012 214.098 23.6936 212.789 22.0807 212.789C20.4677 212.789 19.1602 214.098 19.1602 215.713C19.1602 217.327 20.4677 218.636 22.0807 218.636Z" fill="#5E5E69"/>
<path d="M289.284 431.945C289.284 432.353 289.163 432.751 288.937 433.09C288.711 433.429 288.389 433.693 288.013 433.849C287.636 434.004 287.222 434.045 286.823 433.965C286.423 433.885 286.057 433.688 285.769 433.4C285.481 433.111 285.286 432.744 285.207 432.344C285.128 431.944 285.17 431.53 285.326 431.153C285.483 430.777 285.747 430.456 286.086 430.23C286.425 430.004 286.824 429.884 287.231 429.885C287.501 429.885 287.768 429.938 288.018 430.042C288.267 430.146 288.494 430.297 288.685 430.489C288.875 430.68 289.026 430.907 289.129 431.157C289.232 431.407 289.285 431.675 289.284 431.945Z" fill="#5E5E69"/>
<path d="M401.674 231.907C402.87 231.907 403.84 230.937 403.84 229.74C403.84 228.542 402.87 227.572 401.674 227.572C400.478 227.572 399.508 228.542 399.508 229.74C399.508 230.937 400.478 231.907 401.674 231.907Z" fill="#5E5E69"/>
<path d="M172.6 64.3332C173.574 64.3332 174.364 63.5427 174.364 62.5675C174.364 61.5924 173.574 60.8019 172.6 60.8019C171.626 60.8019 170.836 61.5924 170.836 62.5675C170.836 63.5427 171.626 64.3332 172.6 64.3332Z" fill="#5E5E69"/>
<path d="M511.001 88.7726C511.001 89.246 510.861 89.7087 510.598 90.1023C510.336 90.4959 509.962 90.8027 509.525 90.9838C509.088 91.165 508.607 91.2124 508.143 91.12C507.68 91.0277 507.254 90.7997 506.919 90.465C506.585 90.1303 506.357 89.7038 506.265 89.2395C506.172 88.7753 506.22 88.294 506.401 87.8567C506.582 87.4193 506.888 87.0455 507.281 86.7825C507.675 86.5196 508.137 86.3792 508.61 86.3792C508.924 86.3792 509.235 86.4411 509.525 86.5614C509.815 86.6817 510.079 86.858 510.301 87.0802C510.523 87.3025 510.699 87.5663 510.819 87.8567C510.939 88.1471 511.001 88.4583 511.001 88.7726Z" fill="#5E5E69"/>
<path d="M454.289 2.12368C454.29 2.54488 454.166 2.9569 453.933 3.30759C453.699 3.65827 453.368 3.93186 452.979 4.09372C452.591 4.25558 452.163 4.29843 451.75 4.21686C451.337 4.13528 450.958 3.93294 450.66 3.63545C450.362 3.33796 450.159 2.95869 450.076 2.54565C449.994 2.13262 450.036 1.70438 450.197 1.31515C450.357 0.925912 450.63 0.593183 450.98 0.359074C451.33 0.124965 451.741 1.11811e-06 452.162 0C452.725 -1.49633e-06 453.265 0.223586 453.664 0.621712C454.063 1.01984 454.287 1.55999 454.289 2.12368Z" fill="#00B4D8"/>
<path d="M481.092 279.173C479.25 279.173 477.45 278.626 475.919 277.602C474.388 276.578 473.195 275.123 472.49 273.42C471.785 271.717 471.601 269.844 471.96 268.036C472.319 266.228 473.206 264.568 474.508 263.265C475.81 261.962 477.469 261.074 479.275 260.714C481.081 260.355 482.953 260.539 484.654 261.245C486.356 261.95 487.81 263.144 488.833 264.677C489.856 266.209 490.402 268.011 490.402 269.854C490.402 272.326 489.421 274.696 487.675 276.443C485.929 278.191 483.561 279.173 481.092 279.173ZM481.092 262.497C479.638 262.497 478.217 262.929 477.008 263.737C475.799 264.545 474.857 265.694 474.301 267.039C473.745 268.383 473.599 269.862 473.883 271.289C474.166 272.716 474.866 274.027 475.894 275.056C476.922 276.085 478.232 276.786 479.658 277.07C481.083 277.353 482.561 277.208 483.904 276.651C485.247 276.094 486.395 275.151 487.203 273.941C488.011 272.731 488.442 271.309 488.442 269.854C488.442 268.888 488.253 267.93 487.884 267.037C487.515 266.144 486.973 265.332 486.291 264.649C485.608 263.965 484.798 263.423 483.906 263.053C483.013 262.683 482.057 262.492 481.092 262.492V262.497Z" fill="#00B4D8"/>
<path d="M78.0376 283.4C75.9395 283.399 73.8889 282.776 72.1449 281.609C70.401 280.441 69.042 278.782 68.2397 276.842C67.4375 274.902 67.2281 272.767 67.638 270.708C68.0479 268.648 69.0587 266.757 70.5426 265.272C72.0265 263.787 73.9168 262.777 75.9746 262.367C78.0324 261.958 80.1652 262.169 82.1034 262.972C84.0417 263.776 85.6983 265.137 86.8638 266.883C88.0293 268.629 88.6514 270.682 88.6514 272.782C88.6488 275.598 87.5295 278.298 85.5395 280.289C83.5494 282.28 80.8513 283.399 78.0376 283.4ZM78.0376 264.126C76.3272 264.126 74.6555 264.635 73.2339 265.587C71.8122 266.539 70.7045 267.891 70.0506 269.473C69.3968 271.055 69.2262 272.795 69.5605 274.474C69.8947 276.153 70.7188 277.695 71.9286 278.905C73.1383 280.115 74.6794 280.939 76.357 281.273C78.0345 281.606 79.7733 281.435 81.3534 280.779C82.9334 280.124 84.2839 279.014 85.234 277.591C86.1842 276.167 86.6913 274.494 86.6913 272.782C86.6887 270.486 85.776 268.285 84.1535 266.662C82.531 265.039 80.3314 264.127 78.0376 264.126Z" fill="#00B4D8"/>
<path d="M433.117 46.8386C432.035 46.8425 430.975 46.5248 430.074 45.9257C429.172 45.3266 428.468 44.4732 428.051 43.4734C427.634 42.4735 427.523 41.3724 427.732 40.3094C427.94 39.2463 428.46 38.2692 429.224 37.5018C429.988 36.7343 430.962 36.2111 432.023 35.9983C433.085 35.7855 434.185 35.8927 435.186 36.3064C436.186 36.7201 437.041 37.4216 437.643 38.3222C438.245 39.2227 438.566 40.2817 438.566 41.3651C438.564 42.8126 437.989 44.2003 436.968 45.2257C435.948 46.251 434.563 46.8308 433.117 46.8386ZM433.117 37.8583C432.422 37.8545 431.742 38.0572 431.162 38.4409C430.582 38.8247 430.13 39.372 429.861 40.0136C429.593 40.6552 429.521 41.3622 429.654 42.0448C429.788 42.7274 430.121 43.355 430.611 43.8479C431.102 44.3407 431.727 44.6768 432.409 44.8133C433.09 44.9498 433.797 44.8808 434.439 44.6148C435.081 44.3488 435.63 43.898 436.016 43.3194C436.402 42.7409 436.607 42.0607 436.606 41.3651C436.605 40.438 436.237 39.549 435.584 38.8921C434.93 38.2351 434.043 37.8635 433.117 37.8583Z" fill="#00B4D8"/>
<path d="M197.271 19.9419C195.971 19.9419 194.699 19.5558 193.617 18.8324C192.536 18.1089 191.693 17.0807 191.195 15.8777C190.698 14.6747 190.568 13.351 190.822 12.0741C191.076 10.7972 191.703 9.62447 192.623 8.70416C193.543 7.78386 194.715 7.15738 195.991 6.90397C197.267 6.65056 198.59 6.7816 199.791 7.28052C200.993 7.77945 202.019 8.62383 202.741 9.70687C203.463 10.7899 203.848 12.0629 203.847 13.3649C203.845 15.1093 203.151 16.7814 201.918 18.0144C200.685 19.2475 199.014 19.9406 197.271 19.9419ZM197.271 8.74483C196.358 8.74483 195.466 9.01579 194.707 9.52345C193.948 10.0311 193.356 10.7527 193.007 11.5969C192.657 12.4411 192.566 13.3701 192.744 14.2663C192.922 15.1625 193.362 15.9857 194.007 16.6318C194.653 17.278 195.475 17.718 196.371 17.8963C197.266 18.0745 198.194 17.983 199.038 17.6333C199.881 17.2837 200.602 16.6915 201.109 15.9317C201.617 15.1719 201.887 14.2787 201.887 13.3649C201.886 12.14 201.399 10.9656 200.534 10.0995C199.669 9.2333 198.495 8.74612 197.271 8.74483Z" fill="#00B4D8"/>
<path d="M214.877 170.816C212.395 170.816 209.969 170.08 207.905 168.699C205.842 167.319 204.233 165.357 203.283 163.062C202.334 160.767 202.085 158.242 202.569 155.805C203.053 153.369 204.249 151.131 206.004 149.374C207.759 147.617 209.995 146.421 212.429 145.936C214.864 145.452 217.387 145.7 219.68 146.651C221.973 147.602 223.933 149.212 225.312 151.277C226.691 153.343 227.427 155.771 227.427 158.256C227.423 161.586 226.1 164.778 223.747 167.133C221.394 169.488 218.205 170.812 214.877 170.816ZM214.877 147.657C212.783 147.657 210.736 148.278 208.994 149.443C207.253 150.608 205.896 152.263 205.094 154.2C204.293 156.136 204.083 158.267 204.492 160.323C204.9 162.379 205.909 164.268 207.39 165.75C208.871 167.232 210.757 168.242 212.812 168.651C214.866 169.06 216.995 168.85 218.93 168.048C220.865 167.245 222.519 165.887 223.682 164.144C224.846 162.401 225.467 160.352 225.467 158.256C225.463 155.446 224.346 152.752 222.361 150.765C220.376 148.779 217.685 147.661 214.877 147.657Z" fill="#00B4D8"/>
<path d="M407.697 141.374C406.739 141.374 405.803 141.09 405.007 140.557C404.211 140.025 403.59 139.268 403.224 138.383C402.858 137.497 402.762 136.523 402.948 135.583C403.135 134.643 403.596 133.78 404.273 133.102C404.951 132.424 405.813 131.963 406.752 131.776C407.692 131.589 408.665 131.685 409.55 132.052C410.434 132.418 411.19 133.039 411.722 133.836C412.254 134.633 412.538 135.57 412.538 136.528C412.537 137.813 412.026 139.045 411.119 139.953C410.211 140.862 408.98 141.373 407.697 141.374ZM407.697 133.649C407.127 133.649 406.57 133.819 406.096 134.136C405.622 134.453 405.252 134.904 405.034 135.431C404.816 135.958 404.76 136.538 404.871 137.098C404.983 137.657 405.258 138.171 405.661 138.574C406.065 138.977 406.579 139.252 407.138 139.362C407.697 139.473 408.277 139.415 408.803 139.196C409.329 138.977 409.779 138.607 410.095 138.132C410.411 137.657 410.579 137.099 410.578 136.528C410.577 135.764 410.273 135.032 409.733 134.492C409.192 133.953 408.46 133.649 407.697 133.649Z" fill="#5E5E69"/>
<path d="M340.426 267.632C338.978 267.632 337.563 267.203 336.359 266.397C335.155 265.592 334.217 264.448 333.663 263.109C333.109 261.77 332.964 260.297 333.246 258.875C333.529 257.454 334.226 256.148 335.25 255.124C336.274 254.099 337.578 253.401 338.998 253.118C340.418 252.836 341.89 252.981 343.228 253.535C344.566 254.09 345.709 255.029 346.513 256.234C347.318 257.439 347.747 258.856 347.747 260.305C347.739 262.246 346.966 264.105 345.594 265.478C344.223 266.85 342.366 267.625 340.426 267.632ZM340.426 254.944C339.366 254.944 338.329 255.259 337.448 255.849C336.566 256.439 335.879 257.277 335.473 258.258C335.068 259.238 334.962 260.317 335.169 261.358C335.376 262.399 335.887 263.355 336.637 264.106C337.388 264.856 338.343 265.366 339.383 265.573C340.424 265.779 341.502 265.672 342.481 265.266C343.461 264.859 344.298 264.17 344.886 263.287C345.475 262.404 345.788 261.366 345.787 260.305C345.786 258.883 345.22 257.519 344.215 256.514C343.21 255.509 341.847 254.944 340.426 254.944Z" fill="#5E5E69"/>
<path d="M7.26796 106.218C5.82972 106.218 4.42378 105.791 3.22793 104.992C2.03208 104.192 1.10002 103.055 0.549634 101.725C-0.000755481 100.395 -0.144763 98.9317 0.135824 97.5198C0.41641 96.108 1.10899 94.8111 2.12598 93.7932C3.14296 92.7753 4.43868 92.0821 5.84929 91.8012C7.25989 91.5204 8.72202 91.6645 10.0508 92.2154C11.3795 92.7663 12.5152 93.6992 13.3143 94.8961C14.1133 96.093 14.5398 97.5002 14.5398 98.9398C14.5385 100.87 13.772 102.72 12.4085 104.085C11.045 105.45 9.19618 106.217 7.26796 106.218ZM7.26796 93.6281C6.21718 93.6281 5.19 93.9401 4.31638 94.5245C3.44275 95.1089 2.76193 95.9395 2.36004 96.9113C1.95814 97.883 1.85324 98.9522 2.05859 99.9837C2.26395 101.015 2.77033 101.962 3.51369 102.706C4.25705 103.449 5.20398 103.955 6.23468 104.16C7.26539 104.364 8.33357 104.258 9.30409 103.855C10.2746 103.452 11.1039 102.77 11.6869 101.895C12.27 101.02 12.5807 99.9915 12.5797 98.9398C12.5784 97.5306 12.0182 96.1796 11.0222 95.1836C10.0262 94.1876 8.67588 93.6281 7.26796 93.6281Z" fill="#5E5E69"/>
</g>
<defs>
<clipPath id="clip0">
<rect width="511" height="434" fill="white"/>
</clipPath>
</defs>
</svg>
